<svg width="38" height="36" viewBox="0 0 38 36" xmlns="http://www.w3.org/2000/svg"><title>7C61579F-5FAC-4E33-BB60-5BE11360D904</title><path d="M37.223 13.703l-5.704 5.703-8.706-8.704c-.976-.977-1.754-1.176-2.332-.598-.863.863-.498 2.09 1.095 3.684l7.78 7.78-5.703 5.704-8.492-8.492c-1.043-1.043-1.887-1.242-2.532-.597-.464.465-.616.972-.455 1.522.16.55.688 1.27 1.58 2.162l7.65 7.652-5.702 5.703L.327 19.847l5.704-5.703.797.796c.626.626 1.186 1.242 1.68 1.85-.912-2.94-.55-5.226 1.08-6.857 1.83-1.83 4.248-2.124 7.254-.88-1.355-2.893-1.147-5.226.626-7C18.803.718 20.336.164 22.06.39c1.432.2 2.97 1.118 4.61 2.76l10.553 10.553z" fill="#F64136" fill-rule="evenodd"/></svg>